<mxfile host="app.diagrams.net" modified="2024-03-24T13:25:40.272Z" agent="Mozilla/5.0 (Windows NT 10.0; Win64; x64) AppleWebKit/537.36 (KHTML, like Gecko) Chrome/122.0.0.0 Safari/537.36 Edg/122.0.0.0" etag="dJwBnq2qrwQLcSSXvVxQ" version="24.1.0" type="github">
  <diagram name="Page-1" id="c4acf3e9-155e-7222-9cf6-157b1a14988f">
    <mxGraphModel dx="946" dy="673" grid="1" gridSize="10" guides="1" tooltips="1" connect="1" arrows="1" fold="1" page="1" pageScale="1" pageWidth="850" pageHeight="1100" background="none" math="0" shadow="0">
      <root>
        <mxCell id="0" />
        <mxCell id="1" parent="0" />
        <mxCell id="WGtGvflnwnbeJUWCmJHD-1" value="&lt;font style=&quot;font-size: 20px;&quot;&gt;用户&lt;/font&gt;" style="shape=umlActor;verticalLabelPosition=bottom;verticalAlign=top;html=1;outlineConnect=0;fontSize=20;strokeWidth=2;" vertex="1" parent="1">
          <mxGeometry x="240" y="830" width="30" height="60" as="geometry" />
        </mxCell>
        <mxCell id="WGtGvflnwnbeJUWCmJHD-5" value="&lt;font style=&quot;font-size: 20px;&quot;&gt;个人信息展示&lt;/font&gt;" style="ellipse;whiteSpace=wrap;html=1;strokeWidth=2;" vertex="1" parent="1">
          <mxGeometry x="330" y="700" width="160" height="80" as="geometry" />
        </mxCell>
        <mxCell id="WGtGvflnwnbeJUWCmJHD-6" value="&lt;font style=&quot;font-size: 20px;&quot;&gt;关注好友/企业信息展示&lt;/font&gt;" style="ellipse;whiteSpace=wrap;html=1;strokeWidth=2;" vertex="1" parent="1">
          <mxGeometry x="410" y="820" width="160" height="80" as="geometry" />
        </mxCell>
        <mxCell id="WGtGvflnwnbeJUWCmJHD-7" value="&lt;font style=&quot;font-size: 20px;&quot;&gt;需求平台及订单信息展示&lt;/font&gt;" style="ellipse;whiteSpace=wrap;html=1;strokeWidth=2;" vertex="1" parent="1">
          <mxGeometry x="360" y="930" width="160" height="80" as="geometry" />
        </mxCell>
        <mxCell id="WGtGvflnwnbeJUWCmJHD-9" value="" style="endArrow=none;dashed=1;html=1;rounded=0;exitX=1;exitY=0.3333333333333333;exitDx=0;exitDy=0;exitPerimeter=0;entryX=0.288;entryY=0.925;entryDx=0;entryDy=0;entryPerimeter=0;" edge="1" parent="1" source="WGtGvflnwnbeJUWCmJHD-1" target="WGtGvflnwnbeJUWCmJHD-5">
          <mxGeometry width="50" height="50" relative="1" as="geometry">
            <mxPoint x="400" y="880" as="sourcePoint" />
            <mxPoint x="450" y="830" as="targetPoint" />
          </mxGeometry>
        </mxCell>
        <mxCell id="WGtGvflnwnbeJUWCmJHD-10" value="" style="endArrow=none;dashed=1;html=1;rounded=0;" edge="1" parent="1" source="WGtGvflnwnbeJUWCmJHD-1" target="WGtGvflnwnbeJUWCmJHD-6">
          <mxGeometry width="50" height="50" relative="1" as="geometry">
            <mxPoint x="400" y="880" as="sourcePoint" />
            <mxPoint x="450" y="830" as="targetPoint" />
          </mxGeometry>
        </mxCell>
        <mxCell id="WGtGvflnwnbeJUWCmJHD-11" value="" style="endArrow=none;dashed=1;html=1;rounded=0;entryX=0.075;entryY=0.292;entryDx=0;entryDy=0;entryPerimeter=0;" edge="1" parent="1" source="WGtGvflnwnbeJUWCmJHD-1" target="WGtGvflnwnbeJUWCmJHD-7">
          <mxGeometry width="50" height="50" relative="1" as="geometry">
            <mxPoint x="280" y="980" as="sourcePoint" />
            <mxPoint x="330" y="930" as="targetPoint" />
          </mxGeometry>
        </mxCell>
      </root>
    </mxGraphModel>
  </diagram>
</mxfile>
